<svg xmlns="http://www.w3.org/2000/svg" width="512" height="512" viewBox="0 0 512 512">
<g>
<path d="M 472.04 491.05 L 467.09 496.00 L 109.35 496.00 L 107.09 493.59 C104.89,491.25 56.00,362.86 56.00,359.42 C56.00,358.55 57.32,356.53 58.92,354.92 L 61.85 352.00 L 92.31 352.00 C119.84,352.00 122.99,352.17 124.93,353.75 C126.25,354.82 128.77,360.34 131.45,368.00 L 135.82 380.50 L 136.16 350.50 C136.48,322.26 136.63,320.23 138.66,315.82 C141.72,309.20 148.28,302.50 154.86,299.27 L 160.50 296.50 L 448.50 296.50 L 454.16 299.28 C460.68,302.48 466.29,308.24 469.36,314.88 C471.49,319.47 471.50,320.06 471.77,405.27 ZM 381.55 277.55 L 379.09 280.00 L 229.85 280.00 L 226.92 277.08 L 224.00 274.15 L 224.00 215.22 L 221.25 214.54 C216.29,213.32 206.37,207.15 202.53,202.90 C194.76,194.30 190.77,180.72 192.80,169.81 C195.69,154.24 205.67,142.69 220.25,138.04 L 224.00 136.84 L 224.00 82.05 L 216.00 69.94 L 208.00 57.83 L 208.00 21.85 L 213.85 16.00 L 395.09 16.00 L 397.55 18.45 C399.98,20.89 400.00,21.07 400.00,39.91 L 400.00 58.91 L 384.00 82.85 L 384.00 136.68 L 388.25 137.95 C390.59,138.65 394.08,140.03 396.01,141.01 C401.18,143.64 409.72,153.17 412.80,159.75 C415.20,164.85 415.50,166.69 415.50,176.00 C415.50,185.31 415.20,187.15 412.80,192.25 C409.08,200.19 400.91,208.62 393.50,212.14 C390.20,213.71 386.71,215.00 385.75,215.00 C384.12,215.00 384.00,217.10 384.00,245.05 L 384.00 275.09 ZM 200.00 312.00 L 200.00 480.00 L 408.00 480.00 L 408.00 312.00 L 392.00 312.00 L 392.00 358.00 C392.00,402.67 391.94,404.06 390.00,406.00 C388.03,407.97 386.67,408.00 305.08,408.00 C259.48,408.00 221.44,407.72 220.54,407.38 C216.20,405.71 216.00,403.45 216.00,356.55 L 216.00 312.00 ZM 121.81 329.69 C118.77,331.35 114.82,331.51 74.00,331.68 C48.94,331.78 28.13,331.45 26.36,330.93 C20.51,329.20 13.64,323.71 10.30,318.11 C4.77,308.85 4.85,300.15 10.49,298.00 C13.59,296.83 13.86,293.09 11.02,290.52 C9.32,288.98 9.09,287.65 9.34,280.74 C9.57,274.64 10.04,272.45 11.32,271.51 C13.89,269.63 13.49,265.34 10.68,264.64 C9.41,264.32 7.75,262.90 6.99,261.49 C5.20,258.13 7.02,248.61 10.80,241.65 C14.03,235.69 20.67,228.00 22.58,228.00 C24.90,228.00 24.22,230.02 20.53,234.10 C15.19,240.01 10.76,249.56 10.62,255.48 L 10.50 260.50 L 133.50 260.50 L 133.35 255.84 C132.99,245.07 122.47,230.82 110.35,224.68 C90.83,214.79 53.01,214.67 34.13,224.43 C30.40,226.36 28.00,226.44 28.00,224.64 C28.00,223.12 36.63,219.01 44.88,216.60 C54.64,213.75 70.69,212.57 82.68,213.81 C102.64,215.88 114.32,220.35 124.05,229.63 C136.16,241.18 142.11,260.72 134.56,264.16 C131.21,265.68 130.60,268.95 133.16,271.67 C134.70,273.31 135.12,274.76 134.76,277.19 C134.49,279.01 134.72,281.49 135.28,282.70 C136.34,285.03 134.61,291.00 132.88,291.00 C132.40,291.00 132.00,292.36 132.00,294.02 C132.00,296.32 132.59,297.28 134.47,297.99 C137.45,299.12 138.47,302.54 137.64,308.57 C136.50,316.94 130.49,324.96 121.81,329.69 ZM 240.00 104.00 L 240.00 120.00 L 368.00 120.00 L 368.00 104.00 L 344.00 104.00 L 344.00 88.00 L 368.00 88.00 L 368.00 83.43 C368.00,78.00 368.29,77.40 377.12,64.32 L 384.00 54.15 L 384.00 32.00 L 360.00 32.00 L 360.00 64.00 L 344.00 64.00 L 344.00 32.00 L 328.00 32.00 L 328.00 56.00 L 312.00 56.00 L 312.00 32.00 L 296.00 32.00 L 296.00 80.00 L 280.00 80.00 L 280.00 32.00 L 264.00 32.00 L 264.00 64.00 L 248.00 64.00 L 248.00 32.00 L 224.00 32.00 L 224.00 53.06 L 232.00 65.00 C239.60,76.34 240.00,77.22 240.00,82.47 L 240.00 88.00 L 272.00 88.00 L 272.00 104.00 ZM 240.62 206.29 C240.97,206.63 242.98,206.03 245.09,204.95 C252.82,201.01 259.57,200.00 278.21,200.00 L 296.00 200.00 L 296.00 176.00 L 312.00 176.00 L 312.00 199.83 L 353.50 200.50 L 360.36 203.75 C364.14,205.54 367.40,207.00 367.61,207.00 C367.83,207.00 368.00,191.02 368.00,171.50 L 368.00 136.00 L 240.00 136.00 L 240.00 170.83 C240.00,189.99 240.28,205.95 240.62,206.29 ZM 97.08 425.23 L 117.50 479.97 L 150.75 479.98 L 184.00 480.00 L 184.00 424.00 L 152.00 424.00 L 152.00 427.30 C152.00,429.12 153.57,435.28 155.50,441.00 C157.43,446.72 159.00,451.94 159.00,452.60 C159.00,453.70 148.22,458.00 145.47,458.00 C144.84,458.00 137.62,437.76 129.41,413.02 L 114.50 368.04 L 95.14 368.02 C80.09,368.00 75.88,368.28 76.22,369.25 C76.46,369.94 85.85,395.13 97.08,425.23 ZM 232.00 312.00 L 232.00 392.00 L 376.00 392.00 L 376.00 312.00 L 360.00 312.00 L 360.00 319.27 C360.00,331.94 355.45,344.94 347.66,354.54 C327.86,378.94 293.26,382.98 269.46,363.66 C263.50,358.83 257.07,351.13 254.16,345.35 C250.69,338.47 248.00,327.09 248.00,319.27 L 248.00 312.00 ZM 294.45 358.60 C320.59,364.95 344.00,345.90 344.00,318.29 L 344.00 312.00 L 264.00 312.00 L 264.00 317.45 C264.00,337.82 276.07,354.14 294.45,358.60 ZM 26.95 327.05 C28.35,327.48 48.70,327.87 72.17,327.91 C112.15,327.99 115.11,327.88 119.17,326.08 C127.83,322.25 133.15,314.99 133.37,306.69 L 133.50 301.50 L 120.25 301.22 C112.54,301.06 107.00,300.54 107.00,299.97 C107.00,298.70 102.69,298.71 101.41,299.99 C100.79,300.61 83.42,301.08 55.46,301.24 L 10.50 301.50 L 10.53 306.54 C10.59,315.34 17.72,324.25 26.95,327.05 ZM 424.00 312.00 L 424.00 408.00 L 456.00 408.00 L 456.00 366.55 C456.00,323.27 455.89,322.08 451.56,317.16 C448.16,313.31 443.56,312.00 433.38,312.00 ZM 152.00 367.15 L 152.00 408.00 L 184.00 408.00 L 184.00 312.00 L 174.47 312.00 C164.14,312.00 159.86,313.21 156.39,317.12 C152.24,321.79 152.00,324.54 152.00,367.15 ZM 240.00 248.00 L 240.00 264.00 L 368.00 264.00 L 368.00 248.00 L 353.25 248.00 C341.86,248.00 337.01,247.58 331.99,246.14 C322.97,243.56 315.57,239.61 310.01,234.42 C307.42,231.99 304.86,230.00 304.32,230.00 C303.79,230.00 302.26,231.16 300.92,232.58 C296.94,236.83 284.97,243.68 277.64,245.91 C271.96,247.64 268.15,248.00 255.39,248.00 ZM 424.00 424.00 L 424.00 480.00 L 456.00 480.00 L 456.00 424.00 ZM 96.81 284.50 C100.45,287.52 104.24,290.00 105.23,290.00 C106.21,290.00 109.71,287.52 113.00,284.50 C118.37,279.56 119.44,279.00 123.41,279.00 C128.97,279.00 131.00,278.24 131.00,276.14 C131.00,274.64 126.06,274.50 72.00,274.50 C17.94,274.50 13.00,274.64 13.00,276.14 C13.00,277.05 13.71,278.06 14.58,278.39 C15.45,278.73 32.82,279.00 53.17,279.00 L 90.18 279.00 ZM 15.87 266.50 L 20.08 271.00 L 71.97 271.00 C117.81,271.00 124.04,270.82 125.43,269.43 C127.72,267.14 127.38,266.33 123.88,265.62 C119.68,264.79 25.66,264.97 20.19,265.82 ZM 384.00 176.36 C384.00,191.66 384.00,197.35 385.71,197.92 C386.72,198.25 388.32,196.80 390.87,194.50 L 390.98 194.40 C397.77,188.27 399.47,184.57 399.47,176.00 C399.47,167.43 397.77,163.73 390.98,157.60 L 390.87 157.50 C388.32,155.20 386.72,153.75 385.71,154.08 C384.00,154.65 384.00,160.34 384.00,175.64 L 384.00 176.36 ZM 220.50 196.84 C221.60,197.44 222.84,197.95 223.25,197.97 C223.66,197.99 224.00,188.10 224.00,176.00 C224.00,163.90 223.75,154.00 223.45,154.00 C221.96,154.00 217.21,157.13 214.86,159.66 C210.23,164.65 208.57,168.98 208.57,176.00 C208.58,185.05 212.94,192.66 220.50,196.84 ZM 15.31 288.81 C18.68,290.44 22.39,290.19 27.50,288.00 C33.45,285.45 36.22,285.48 42.75,288.19 L 48.03 290.38 L 52.54 288.19 C58.15,285.47 60.39,285.45 67.28,288.09 L 72.73 290.18 L 76.83 288.09 C81.86,285.52 86.26,285.48 91.49,287.96 C96.67,290.40 97.35,289.61 92.99,286.20 L 89.55 283.50 L 52.02 283.00 C21.34,282.59 14.28,282.75 13.32,283.85 C11.79,285.59 12.55,287.47 15.31,288.81 ZM 328.00 88.00 L 328.00 104.00 L 312.00 104.00 L 312.00 88.00 ZM 272.00 152.00 L 272.00 168.00 L 256.00 168.00 L 256.00 152.00 ZM 352.00 152.00 L 352.00 168.00 L 336.00 168.00 L 336.00 152.00 ZM 232.00 424.00 L 232.00 440.00 L 216.00 440.00 L 216.00 424.00 ZM 392.00 424.00 L 392.00 440.00 L 376.00 440.00 L 376.00 424.00 ZM 118.67 288.70 C125.17,291.48 132.56,288.87 131.35,284.23 C130.91,282.57 130.15,282.37 125.67,282.77 C122.28,283.08 119.70,283.97 118.17,285.37 L 115.85 287.49 Z" fill="rgb(7,3,4)"/>
<path d="M 232.00 312.00 L 248.00 312.00 L 248.00 319.27 C248.00,327.09 250.69,338.47 254.16,345.35 C257.07,351.13 263.50,358.83 269.46,363.66 C293.26,382.98 327.86,378.94 347.66,354.54 C355.45,344.94 360.00,331.94 360.00,319.27 L 360.00 312.00 L 376.00 312.00 L 376.00 392.00 L 232.00 392.00 ZM 424.00 312.00 L 433.38 312.00 C443.56,312.00 448.16,313.31 451.56,317.16 C455.89,322.08 456.00,323.27 456.00,366.55 L 456.00 408.00 L 424.00 408.00 ZM 152.00 367.15 C152.00,324.54 152.24,321.79 156.39,317.12 C159.86,313.21 164.14,312.00 174.47,312.00 L 184.00 312.00 L 184.00 408.00 L 152.00 408.00 Z" fill="rgb(73,127,186)"/>
<path d="M 0.00 0.00 L 512.00 0.00 L 512.00 512.00 L 0.00 512.00 ZM 472.04 491.05 L 471.77 405.27 C471.50,320.06 471.49,319.47 469.36,314.88 C466.29,308.24 460.68,302.48 454.16,299.28 L 448.50 296.50 L 160.50 296.50 L 154.86 299.27 C148.28,302.50 141.72,309.20 138.66,315.82 C136.63,320.23 136.48,322.26 136.16,350.50 L 135.82 380.50 L 131.45 368.00 C128.77,360.34 126.25,354.82 124.93,353.75 C122.99,352.17 119.84,352.00 92.31,352.00 L 61.85 352.00 L 58.92 354.92 C57.32,356.53 56.00,358.55 56.00,359.42 C56.00,362.86 104.89,491.25 107.09,493.59 L 109.35 496.00 L 467.09 496.00 ZM 381.55 277.55 L 384.00 275.09 L 384.00 245.05 C384.00,217.10 384.12,215.00 385.75,215.00 C386.71,215.00 390.20,213.71 393.50,212.14 C400.91,208.62 409.08,200.19 412.80,192.25 C415.20,187.15 415.50,185.31 415.50,176.00 C415.50,166.69 415.20,164.85 412.80,159.75 C409.72,153.17 401.18,143.64 396.01,141.01 C394.08,140.03 390.59,138.65 388.25,137.95 L 384.00 136.68 L 384.00 82.85 L 400.00 58.91 L 400.00 39.91 C400.00,21.07 399.98,20.89 397.55,18.45 L 395.09 16.00 L 213.85 16.00 L 208.00 21.85 L 208.00 57.83 L 216.00 69.94 L 224.00 82.05 L 224.00 136.84 L 220.25 138.04 C205.67,142.69 195.69,154.24 192.80,169.81 C190.77,180.72 194.76,194.30 202.53,202.90 C206.37,207.15 216.29,213.32 221.25,214.54 L 224.00 215.22 L 224.00 274.15 L 226.92 277.08 L 229.85 280.00 L 379.09 280.00 ZM 200.00 312.00 L 216.00 312.00 L 216.00 356.55 C216.00,403.45 216.20,405.71 220.54,407.38 C221.44,407.72 259.48,408.00 305.08,408.00 C386.67,408.00 388.03,407.97 390.00,406.00 C391.94,404.06 392.00,402.67 392.00,358.00 L 392.00 312.00 L 408.00 312.00 L 408.00 480.00 L 200.00 480.00 ZM 121.81 329.69 C130.49,324.96 136.50,316.94 137.64,308.57 C138.47,302.54 137.45,299.12 134.47,297.99 C132.59,297.28 132.00,296.32 132.00,294.02 C132.00,292.36 132.40,291.00 132.88,291.00 C134.61,291.00 136.34,285.03 135.28,282.70 C134.72,281.49 134.49,279.01 134.76,277.19 C135.12,274.76 134.70,273.31 133.16,271.67 C130.60,268.95 131.21,265.68 134.56,264.16 C142.11,260.72 136.16,241.18 124.05,229.63 C114.32,220.35 102.64,215.88 82.68,213.81 C70.69,212.57 54.64,213.75 44.88,216.60 C36.63,219.01 28.00,223.12 28.00,224.64 C28.00,224.82 28.03,224.99 28.08,225.14 C27.91,224.90 27.78,224.60 27.69,224.25 C27.35,222.93 27.20,223.06 27.12,224.75 C27.05,225.99 26.54,227.00 25.97,227.00 C25.40,227.00 24.65,227.79 24.30,228.75 C24.19,229.06 23.93,229.53 23.56,230.09 C24.27,228.69 23.94,228.00 22.58,228.00 C20.67,228.00 14.03,235.69 10.80,241.65 C7.02,248.61 5.20,258.13 6.99,261.49 C7.75,262.90 9.41,264.32 10.68,264.64 C13.49,265.34 13.89,269.63 11.32,271.51 C10.04,272.45 9.57,274.64 9.34,280.74 C9.09,287.65 9.32,288.98 11.02,290.52 C13.86,293.09 13.59,296.83 10.49,298.00 C4.85,300.15 4.77,308.85 10.30,318.11 C13.64,323.71 20.51,329.20 26.36,330.93 C28.13,331.45 48.94,331.78 74.00,331.68 C114.82,331.51 118.77,331.35 121.81,329.69 ZM 240.00 104.00 L 272.00 104.00 L 272.00 88.00 L 240.00 88.00 L 240.00 82.47 C240.00,77.22 239.60,76.34 232.00,65.00 L 224.00 53.06 L 224.00 32.00 L 248.00 32.00 L 248.00 64.00 L 264.00 64.00 L 264.00 32.00 L 280.00 32.00 L 280.00 80.00 L 296.00 80.00 L 296.00 32.00 L 312.00 32.00 L 312.00 56.00 L 328.00 56.00 L 328.00 32.00 L 344.00 32.00 L 344.00 64.00 L 360.00 64.00 L 360.00 32.00 L 384.00 32.00 L 384.00 54.15 L 377.12 64.32 C368.29,77.40 368.00,78.00 368.00,83.43 L 368.00 88.00 L 344.00 88.00 L 344.00 104.00 L 368.00 104.00 L 368.00 120.00 L 240.00 120.00 ZM 328.00 88.00 L 312.00 88.00 L 312.00 104.00 L 328.00 104.00 ZM 232.00 424.00 L 216.00 424.00 L 216.00 440.00 L 232.00 440.00 ZM 392.00 424.00 L 376.00 424.00 L 376.00 440.00 L 392.00 440.00 ZM 10.52 259.70 C10.93,260.06 12.10,260.32 15.04,260.50 L 10.50 260.50 ZM 17.26 238.33 C15.40,241.15 13.75,244.36 12.49,247.46 C13.67,244.40 15.33,241.19 17.26,238.33 ZM 30.05 225.90 C31.09,225.78 32.48,225.29 34.13,224.43 C32.40,225.32 31.06,225.82 30.05,225.90 Z" fill="rgb(249,249,246)"/>
<path d="M 97.08 425.23 C85.85,395.13 76.46,369.94 76.22,369.25 C75.88,368.28 80.09,368.00 95.14,368.02 L 114.50 368.04 L 129.41 413.02 C137.62,437.76 144.84,458.00 145.47,458.00 C148.22,458.00 159.00,453.70 159.00,452.60 C159.00,451.94 157.43,446.72 155.50,441.00 C153.57,435.28 152.00,429.12 152.00,427.30 L 152.00 424.00 L 168.00 424.00 L 184.00 424.00 L 184.00 452.00 L 184.00 480.00 L 150.75 479.98 L 117.50 479.97 L 97.08 425.23 ZM 424.00 452.00 L 424.00 424.00 L 440.00 424.00 L 456.00 424.00 L 456.00 452.00 L 456.00 480.00 L 440.00 480.00 L 424.00 480.00 L 424.00 452.00 ZM 294.45 358.60 C276.07,354.14 264.00,337.82 264.00,317.45 L 264.00 312.00 L 304.00 312.00 L 344.00 312.00 L 344.00 318.29 C344.00,345.90 320.59,364.95 294.45,358.60 ZM 26.95 327.05 C17.72,324.25 10.59,315.34 10.53,306.54 L 10.50 301.50 L 55.46 301.24 C83.42,301.08 100.79,300.61 101.41,299.99 C102.69,298.71 107.00,298.70 107.00,299.97 C107.00,300.54 112.54,301.06 120.25,301.22 L 133.50 301.50 L 133.37 306.69 C133.15,314.99 127.83,322.25 119.17,326.08 C115.11,327.88 112.15,327.99 72.17,327.91 C48.70,327.87 28.35,327.48 26.95,327.05 ZM 15.31 288.81 C12.55,287.47 11.79,285.59 13.32,283.85 C14.28,282.75 21.34,282.59 52.02,283.00 L 89.55 283.50 L 92.99 286.20 C97.35,289.61 96.67,290.40 91.49,287.96 C86.26,285.48 81.86,285.52 76.83,288.09 L 72.73 290.18 L 67.28 288.09 C60.39,285.45 58.15,285.47 52.54,288.19 L 48.03 290.38 L 42.75 288.19 C36.22,285.48 33.45,285.45 27.50,288.00 C22.39,290.19 18.68,290.44 15.31,288.81 ZM 96.81 284.50 L 90.18 279.00 L 53.17 279.00 C32.82,279.00 15.45,278.73 14.58,278.39 C13.71,278.06 13.00,277.05 13.00,276.14 C13.00,274.64 17.94,274.50 72.00,274.50 C126.06,274.50 131.00,274.64 131.00,276.14 C131.00,278.24 128.97,279.00 123.41,279.00 C119.44,279.00 118.37,279.56 113.00,284.50 C109.71,287.52 106.21,290.00 105.23,290.00 C104.24,290.00 100.45,287.52 96.81,284.50 ZM 118.67 288.70 L 115.85 287.49 L 118.17 285.37 C119.70,283.97 122.28,283.08 125.67,282.77 C130.15,282.37 130.91,282.57 131.35,284.23 C132.56,288.87 125.17,291.48 118.67,288.70 ZM 17.98 268.75 L 15.87 266.50 L 20.19 265.82 C25.66,264.97 119.68,264.79 123.88,265.62 C127.38,266.33 127.72,267.14 125.43,269.43 C124.04,270.82 117.81,271.00 71.97,271.00 L 20.08 271.00 L 17.98 268.75 ZM 240.00 256.00 L 240.00 248.00 L 255.39 248.00 C268.15,248.00 271.96,247.64 277.64,245.91 C284.97,243.68 296.94,236.83 300.92,232.58 C302.26,231.16 303.79,230.00 304.32,230.00 C304.86,230.00 307.42,231.99 310.01,234.42 C315.57,239.61 322.97,243.56 331.99,246.14 C337.01,247.58 341.86,248.00 353.25,248.00 L 368.00 248.00 L 368.00 256.00 L 368.00 264.00 L 304.00 264.00 L 240.00 264.00 L 240.00 256.00 ZM 10.35 259.47 C8.63,254.99 14.04,241.34 20.36,234.22 C22.18,232.17 23.95,229.71 24.30,228.75 C24.65,227.79 25.40,227.00 25.97,227.00 C26.54,227.00 27.05,225.99 27.12,224.75 C27.20,223.06 27.35,222.93 27.69,224.25 C28.26,226.42 30.19,226.47 34.13,224.43 C53.01,214.67 90.83,214.79 110.35,224.68 C122.47,230.82 132.99,245.07 133.35,255.84 L 133.50 260.50 L 72.22 260.76 C17.71,260.99 10.88,260.84 10.35,259.47 ZM 240.62 206.29 C240.28,205.95 240.00,189.99 240.00,170.83 L 240.00 136.00 L 304.00 136.00 L 368.00 136.00 L 368.00 171.50 C368.00,191.02 367.83,207.00 367.61,207.00 C367.40,207.00 364.14,205.54 360.36,203.75 L 353.50 200.50 L 332.75 200.16 L 312.00 199.83 L 312.00 187.91 L 312.00 176.00 L 304.00 176.00 L 296.00 176.00 L 296.00 188.00 L 296.00 200.00 L 278.21 200.00 C259.57,200.00 252.82,201.01 245.09,204.95 C242.98,206.03 240.97,206.63 240.62,206.29 ZM 272.00 160.00 L 272.00 152.00 L 264.00 152.00 L 256.00 152.00 L 256.00 160.00 L 256.00 168.00 L 264.00 168.00 L 272.00 168.00 L 272.00 160.00 ZM 352.00 160.00 L 352.00 152.00 L 344.00 152.00 L 336.00 152.00 L 336.00 160.00 L 336.00 168.00 L 344.00 168.00 L 352.00 168.00 L 352.00 160.00 ZM 220.50 196.84 C212.94,192.66 208.58,185.05 208.57,176.00 C208.57,168.98 210.23,164.65 214.86,159.66 C217.21,157.13 221.96,154.00 223.45,154.00 C223.75,154.00 224.00,163.90 224.00,176.00 C224.00,188.10 223.66,197.99 223.25,197.97 C222.84,197.95 221.60,197.44 220.50,196.84 ZM 384.00 176.00 C384.00,151.17 383.97,151.26 390.98,157.60 C397.77,163.73 399.47,167.43 399.47,176.00 C399.47,184.57 397.77,188.27 390.98,194.40 C383.97,200.74 384.00,200.83 384.00,176.00 Z" fill="rgb(245,196,110)"/>
</g>
</svg>